<?xml version="1.0" encoding="UTF-8" standalone="no"?>
<!DOCTYPE svg PUBLIC "-//W3C//DTD SVG 20010904//EN"
              "http://www.w3.org/TR/2001/REC-SVG-20010904/DTD/svg10.dtd">

<svg xmlns="http://www.w3.org/2000/svg"
     width="7.11111in" height="5.68889in"
     viewBox="0 0 640 512">
  <path id="Selection"
        fill="none" stroke="black" stroke-width="1"
        d="M 0.00,0.00
           C 0.00,0.00 0.00,166.00 0.00,166.00
             0.00,166.00 3.46,157.00 3.46,157.00
             6.67,149.40 13.43,141.65 20.00,136.76
             32.29,127.62 37.66,131.08 43.33,124.87
             43.33,124.87 55.29,110.00 55.29,110.00
             64.55,99.41 73.30,90.59 84.00,81.43
             124.46,46.79 172.55,23.99 224.00,11.13
             243.45,6.26 271.12,1.00 291.00,1.00
             291.00,1.00 264.00,0.00 264.00,0.00
             264.00,0.00 204.00,0.00 204.00,0.00
             204.00,0.00 0.00,0.00 0.00,0.00 Z
           M 346.00,0.00
           C 349.55,1.41 352.28,0.84 356.00,1.28
             356.00,1.28 378.00,4.08 378.00,4.08
             400.46,7.79 419.26,12.11 441.00,19.03
             487.36,33.78 530.52,60.02 566.00,93.09
             571.85,98.54 581.56,109.63 586.74,116.00
             586.74,116.00 593.67,124.85 593.67,124.85
             597.39,128.82 606.44,129.35 612.00,131.90
             625.10,137.91 636.78,151.61 639.00,166.00
             639.00,166.00 640.00,149.00 640.00,149.00
             640.00,149.00 640.00,116.00 640.00,116.00
             640.00,116.00 640.00,0.00 640.00,0.00
             640.00,0.00 346.00,0.00 346.00,0.00 Z
           M 0.00,314.00
           C 0.00,314.00 0.00,512.00 0.00,512.00
             0.00,512.00 640.00,512.00 640.00,512.00
             640.00,512.00 640.00,314.00 640.00,314.00
             636.62,320.47 638.08,322.80 631.24,332.00
             631.24,332.00 616.96,347.04 616.96,347.04
             616.96,347.04 611.14,358.00 611.14,358.00
             611.14,358.00 596.57,381.00 596.57,381.00
             576.29,409.38 552.79,431.10 524.00,450.66
             512.51,458.46 500.40,465.04 488.00,471.25
             366.37,532.06 206.14,522.34 97.00,439.12
             74.76,422.15 54.94,402.05 39.02,379.00
             39.02,379.00 25.31,357.00 25.31,357.00
             25.31,357.00 18.65,344.00 18.65,344.00
             15.10,338.05 11.79,336.90 6.70,329.00
             2.12,321.89 2.94,319.63 0.00,314.00 Z" />
</svg>
